HIERARCHY
ROOT root
{
	OFFSET 0.000000 0.000000 0.000000
	CHANNELS 6 Xposition Yposition Zposition Zrotation Yrotation Xrotation
	JOINT lhip
	{
		OFFSET 0.058581 -0.082280 -0.017664
		CHANNELS 3 Zrotation Yrotation Xrotation
		JOINT lknee
		{
			OFFSET 0.043451 -0.386469 0.008037
			CHANNELS 3 Zrotation Yrotation Xrotation
			JOINT lankle
			{
				OFFSET -0.014790 -0.426874 -0.037428
				CHANNELS 3 Zrotation Yrotation Xrotation
				JOINT ltoe
				{
					OFFSET 0.041054 -0.060286 0.122042
					CHANNELS 3 Zrotation Yrotation Xrotation
					End Site
					{
						OFFSET 0.000000 0.000000 0.000000
					}
				}
			}
		}
	}
	JOINT rhip
	{
		OFFSET -0.060310 -0.090513 -0.013543
		CHANNELS 3 Zrotation Yrotation Xrotation
		JOINT rknee
		{
			OFFSET -0.043257 -0.383688 -0.004843
			CHANNELS 3 Zrotation Yrotation Xrotation
			JOINT rankle
			{
				OFFSET 0.019056 -0.420046 -0.034562
				CHANNELS 3 Zrotation Yrotation Xrotation
				JOINT rtoe
				{
					OFFSET -0.034840 -0.062106 0.130323
					CHANNELS 3 Zrotation Yrotation Xrotation
					End Site
					{
						OFFSET 0.000000 0.000000 0.000000
					}
				}
			}
		}
	}
	JOINT lowerback
	{
		OFFSET 0.004439 0.124404 -0.038385
		CHANNELS 3 Zrotation Yrotation Xrotation
		JOINT upperback
		{
			OFFSET 0.004488 0.137956 0.026820
			CHANNELS 3 Zrotation Yrotation Xrotation
			JOINT chest
			{
				OFFSET -0.002265 0.056032 0.002855
				CHANNELS 3 Zrotation Yrotation Xrotation
				JOINT lowerneck
				{
					OFFSET -0.013390 0.211636 -0.033468
					CHANNELS 3 Zrotation Yrotation Xrotation
					JOINT upperneck
					{
						OFFSET 0.010113 0.088937 0.050410
						CHANNELS 3 Zrotation Yrotation Xrotation
						End Site
						{
							OFFSET 0.000000 0.000000 0.000000
						}
					}
				}
				JOINT lclavicle
				{
					OFFSET 0.071702 0.114000 -0.018898
					CHANNELS 3 Zrotation Yrotation Xrotation
					JOINT lshoulder
					{
						OFFSET 0.122921 0.045205 -0.019046
						CHANNELS 3 Zrotation Yrotation Xrotation
						JOINT lelbow
						{
							OFFSET 0.255332 -0.015649 -0.022946
							CHANNELS 3 Zrotation Yrotation Xrotation
							JOINT lwrist
							{
								OFFSET 0.265709 0.012698 -0.007375
								CHANNELS 3 Zrotation Yrotation Xrotation
								End Site
								{
									OFFSET 0.000000 0.000000 0.000000
								}
							}
						}
					}
				}
				JOINT rclavicle
				{
					OFFSET -0.082954 0.112472 -0.023707
					CHANNELS 3 Zrotation Yrotation Xrotation
					JOINT rshoulder
					{
						OFFSET -0.113228 0.046853 -0.008472
						CHANNELS 3 Zrotation Yrotation Xrotation
						JOINT relbow
						{
							OFFSET -0.260127 -0.014369 -0.031269
							CHANNELS 3 Zrotation Yrotation Xrotation
							JOINT rwrist
							{
								OFFSET -0.269108 0.006794 -0.006027
								CHANNELS 3 Zrotation Yrotation Xrotation
								End Site
								{
									OFFSET 0.000000 0.000000 0.000000
								}
							}
						}
					}
				}
			}
		}
	}
}
MOTION
Frames: 5
Frame Time: 0.033333
-0.125258 2.444985 0.982880 -149.445676 3.251690 92.504991 -1.444990 -1.219865 -15.116094 -8.727843 -7.752362 26.500212 6.109504 11.316984 -18.251241 0.000000 -0.000000 0.000000 -4.456743 -6.376797 -19.613192 -1.842045 -12.515050 34.236641 2.129665 -12.079261 -11.431001 0.000000 -0.000000 0.000000 -2.015438 4.825346 14.156668 0.352596 -1.284015 15.347149 0.504406 0.028066 -8.226507 -13.845472 20.035481 -0.104557 -4.624508 24.878101 -6.922676 -28.014191 -7.329973 2.425649 -49.942230 -3.875615 14.534575 15.364063 -43.670924 -20.648583 10.490649 -15.544661 -14.528654 26.988137 12.682067 6.015331 46.014179 6.718551 10.289539 -6.541164 25.900447 -22.360690 -9.892434 15.731106 -24.323468 
-0.129722 2.456944 0.982680 -145.156467 2.627637 92.522612 -2.046143 -2.245024 -14.672194 -9.049316 -9.508540 27.471844 5.914643 10.218990 -18.711097 0.000000 -0.000000 0.000000 -4.779899 -5.796155 -21.878275 -0.970348 -10.372580 31.093189 2.343471 -10.375821 -11.503274 0.000000 -0.000000 0.000000 -1.925243 4.787239 14.636567 0.302620 -1.245416 15.335521 0.485886 -0.129973 -8.448424 -14.468046 20.787456 -0.934051 -4.298138 25.995696 -7.157703 -28.203190 -7.203843 2.725820 -49.867878 -4.102511 14.700646 16.092496 -44.200903 -21.124723 10.282418 -15.938931 -14.763873 26.981878 12.419751 6.179796 45.606284 6.952364 10.338957 -6.806666 26.733011 -23.100463 -9.999410 15.933073 -24.732783 
-0.133520 2.468730 0.982476 -140.463596 2.132493 92.481355 -2.389907 -3.260274 -14.307018 -9.406772 -11.190363 28.463796 5.656891 9.136135 -18.918829 0.000000 -0.000000 0.000000 -5.352912 -4.946490 -23.655700 -0.125925 -7.861537 28.663498 2.942461 -8.684576 -11.233506 0.000000 -0.000000 0.000000 -1.556781 4.498744 15.202955 0.160901 -1.104716 14.898359 0.363479 0.093288 -8.444685 -15.011660 20.951809 -1.074564 -3.987385 26.690650 -7.928085 -28.540071 -7.269870 2.049603 -49.697765 -3.828824 15.615203 16.109749 -43.932566 -20.809646 10.992698 -16.113007 -15.460977 27.060360 12.190211 5.969137 44.870513 6.491905 10.346803 -6.647264 27.424863 -23.356862 -10.342461 16.066827 -24.931912 
-0.137155 2.481069 0.982267 -135.905693 1.733615 92.370999 -2.536192 -4.073977 -13.621017 -9.811289 -13.071283 28.917511 5.493148 8.243784 -18.879250 0.000000 -0.000000 0.000000 -6.122203 -3.620727 -25.037932 0.594741 -4.852160 27.132871 3.710891 -6.706099 -11.214585 0.000000 -0.000000 0.000000 -1.171210 4.415244 15.429451 0.177707 -0.862731 15.070689 0.286184 0.243176 -8.689687 -15.781448 21.235817 -1.173846 -3.649304 26.825440 -8.746571 -28.880173 -7.333781 2.200320 -49.817241 -3.794467 15.757291 16.547497 -43.520673 -21.861647 10.923623 -16.249919 -15.285412 27.051835 11.970917 6.173694 43.910359 6.483243 9.928649 -6.371979 27.683576 -23.635555 -9.653777 16.275393 -24.183865 
-0.139479 2.495630 0.982647 -129.985436 1.200248 92.310042 -2.549173 -4.886487 -13.678369 -10.542767 -15.138182 30.573533 5.277454 6.614984 -19.049797 0.000000 -0.000000 0.000000 -7.175797 -2.843836 -25.508884 1.123170 -2.057457 26.016772 4.292524 -4.825178 -11.380631 0.000000 -0.000000 0.000000 -1.291730 4.088296 15.527393 0.536927 -1.204228 15.379570 0.547031 0.261478 -9.355329 -15.772863 20.294683 -0.641544 -3.161528 27.191323 -9.370684 -29.749592 -7.260330 3.072676 -49.263498 -3.601557 15.550637 17.157181 -42.944105 -22.643990 10.499470 -16.556072 -15.390458 27.252620 11.478528 6.893195 43.037404 6.729382 9.456036 -6.326321 27.520305 -23.579990 -8.885008 16.287474 -23.689929 
